<svg width="122" height="21" viewBox="0 0 122 21" fill="none" xmlns="http://www.w3.org/2000/svg">
<path d="M29.626 15.14C29.0287 15.14 28.5013 15.0373 28.044 14.832C27.5867 14.6267 27.232 14.286 26.98 13.81C26.728 13.334 26.602 12.6947 26.602 11.892C26.602 11.0987 26.7373 10.4313 27.008 9.89C27.2787 9.33933 27.652 8.924 28.128 8.644C28.6133 8.364 29.1593 8.224 29.766 8.224C30.1673 8.224 30.522 8.27067 30.83 8.364C31.1473 8.45733 31.4507 8.602 31.74 8.798V5.564H33.266V15H31.964L31.866 14.342C31.5673 14.6127 31.2407 14.8133 30.886 14.944C30.5313 15.0747 30.1113 15.14 29.626 15.14ZM30.032 13.992C30.7133 13.992 31.2827 13.7587 31.74 13.292V9.974C31.3013 9.582 30.7507 9.386 30.088 9.386C29.444 9.386 28.9587 9.60067 28.632 10.03C28.3053 10.4593 28.142 11.0847 28.142 11.906C28.142 12.6993 28.2913 13.2453 28.59 13.544C28.898 13.8427 29.3787 13.992 30.032 13.992ZM38.0717 15.14C36.8771 15.14 35.9997 14.8413 35.4397 14.244C34.8891 13.6467 34.6137 12.7927 34.6137 11.682C34.6137 10.5713 34.8937 9.71733 35.4537 9.12C36.0137 8.52267 36.8864 8.224 38.0717 8.224C39.2664 8.224 40.1437 8.52267 40.7037 9.12C41.2637 9.71733 41.5437 10.5713 41.5437 11.682C41.5437 12.7927 41.2637 13.6467 40.7037 14.244C40.1531 14.8413 39.2757 15.14 38.0717 15.14ZM38.0717 13.852C38.7717 13.852 39.2664 13.684 39.5557 13.348C39.8544 13.0027 40.0037 12.4473 40.0037 11.682C40.0037 10.9167 39.8544 10.366 39.5557 10.03C39.2664 9.694 38.7717 9.526 38.0717 9.526C37.3811 9.526 36.8864 9.694 36.5877 10.03C36.2984 10.366 36.1537 10.9167 36.1537 11.682C36.1537 12.4473 36.2984 13.0027 36.5877 13.348C36.8864 13.684 37.3811 13.852 38.0717 13.852ZM43.8696 15L42.1196 8.364H43.6456L44.7936 13.194L46.0956 9.176V8.364H47.2576L48.6996 13.194L49.8476 8.364H51.3596L49.6236 15H48.1816L46.7676 10.66L45.3256 15H43.8696ZM52.4894 15V8.364H53.8894L53.9594 9.064C54.2581 8.83067 54.6128 8.63467 55.0234 8.476C55.4434 8.308 55.9054 8.224 56.4094 8.224C57.2681 8.224 57.8934 8.42467 58.2854 8.826C58.6774 9.22733 58.8734 9.85267 58.8734 10.702V15H57.3614V10.772C57.3614 10.2587 57.2541 9.89933 57.0394 9.694C56.8341 9.48867 56.4421 9.386 55.8634 9.386C55.5181 9.386 55.1774 9.456 54.8414 9.596C54.5148 9.736 54.2394 9.918 54.0154 10.142V15H52.4894ZM62.2352 15.14C61.6938 15.14 61.2832 15.0093 61.0032 14.748C60.7232 14.4773 60.5832 14.034 60.5832 13.418V5.564H62.1092V13.278C62.1092 13.5393 62.1558 13.7167 62.2492 13.81C62.3425 13.9033 62.4825 13.95 62.6692 13.95C62.8932 13.95 63.1078 13.922 63.3132 13.866V14.972C63.1358 15.0373 62.9632 15.0793 62.7952 15.098C62.6365 15.126 62.4498 15.14 62.2352 15.14ZM67.685 15.14C66.4903 15.14 65.613 14.8413 65.053 14.244C64.5023 13.6467 64.227 12.7927 64.227 11.682C64.227 10.5713 64.507 9.71733 65.067 9.12C65.627 8.52267 66.4997 8.224 67.685 8.224C68.8797 8.224 69.757 8.52267 70.317 9.12C70.877 9.71733 71.157 10.5713 71.157 11.682C71.157 12.7927 70.877 13.6467 70.317 14.244C69.7663 14.8413 68.889 15.14 67.685 15.14ZM67.685 13.852C68.385 13.852 68.8797 13.684 69.169 13.348C69.4677 13.0027 69.617 12.4473 69.617 11.682C69.617 10.9167 69.4677 10.366 69.169 10.03C68.8797 9.694 68.385 9.526 67.685 9.526C66.9943 9.526 66.4997 9.694 66.201 10.03C65.9117 10.366 65.767 10.9167 65.767 11.682C65.767 12.4473 65.9117 13.0027 66.201 13.348C66.4997 13.684 66.9943 13.852 67.685 13.852ZM74.7138 15.14C74.2938 15.14 73.9018 15.0653 73.5378 14.916C73.1831 14.7667 72.8984 14.5427 72.6838 14.244C72.4691 13.936 72.3618 13.558 72.3618 13.11C72.3618 12.4753 72.5764 11.9667 73.0058 11.584C73.4444 11.192 74.1164 10.996 75.0218 10.996H77.1498V10.702C77.1498 10.3847 77.0984 10.1327 76.9958 9.946C76.9024 9.75933 76.7251 9.624 76.4638 9.54C76.2118 9.456 75.8384 9.414 75.3438 9.414C74.5598 9.414 73.8271 9.53067 73.1458 9.764V8.63C73.4444 8.50867 73.8084 8.41067 74.2378 8.336C74.6671 8.26133 75.1291 8.224 75.6238 8.224C76.5944 8.224 77.3318 8.42 77.8358 8.812C78.3491 9.204 78.6058 9.84333 78.6058 10.73V15H77.3038L77.2058 14.328C76.9351 14.5893 76.5991 14.79 76.1978 14.93C75.8058 15.07 75.3111 15.14 74.7138 15.14ZM75.1198 14.048C75.5771 14.048 75.9738 13.9733 76.3098 13.824C76.6551 13.6653 76.9351 13.4553 77.1498 13.194V12.032H75.0498C74.6018 12.032 74.2751 12.1207 74.0698 12.298C73.8738 12.466 73.7758 12.7273 73.7758 13.082C73.7758 13.4273 73.8924 13.6747 74.1258 13.824C74.3591 13.9733 74.6904 14.048 75.1198 14.048ZM83.042 15.14C82.4447 15.14 81.9173 15.0373 81.46 14.832C81.0027 14.6267 80.648 14.286 80.396 13.81C80.144 13.334 80.018 12.6947 80.018 11.892C80.018 11.0987 80.1533 10.4313 80.424 9.89C80.6947 9.33933 81.068 8.924 81.544 8.644C82.0293 8.364 82.5753 8.224 83.182 8.224C83.5833 8.224 83.938 8.27067 84.246 8.364C84.5633 8.45733 84.8667 8.602 85.156 8.798V5.564H86.682V15H85.38L85.282 14.342C84.9833 14.6127 84.6567 14.8133 84.302 14.944C83.9473 15.0747 83.5273 15.14 83.042 15.14ZM83.448 13.992C84.1293 13.992 84.6987 13.7587 85.156 13.292V9.974C84.7173 9.582 84.1667 9.386 83.504 9.386C82.86 9.386 82.3747 9.60067 82.048 10.03C81.7213 10.4593 81.558 11.0847 81.558 11.906C81.558 12.6993 81.7073 13.2453 82.006 13.544C82.314 13.8427 82.7947 13.992 83.448 13.992ZM95.901 15.14C94.417 15.14 93.2923 14.734 92.527 13.922C91.771 13.11 91.393 12.0133 91.393 10.632C91.393 9.64267 91.5517 8.79333 91.869 8.084C92.1957 7.36533 92.6903 6.81467 93.353 6.432C94.0157 6.04 94.8603 5.844 95.887 5.844C96.4097 5.844 96.8857 5.886 97.315 5.97C97.7537 6.04467 98.1597 6.14733 98.533 6.278V7.608C98.1597 7.45867 97.7583 7.34667 97.329 7.272C96.909 7.188 96.4657 7.146 95.999 7.146C94.879 7.146 94.0857 7.44467 93.619 8.042C93.1617 8.63933 92.933 9.50267 92.933 10.632C92.933 11.6867 93.185 12.4893 93.689 13.04C94.193 13.5813 94.9723 13.852 96.027 13.852C96.4563 13.852 96.8857 13.8193 97.315 13.754C97.7537 13.6793 98.1643 13.5673 98.547 13.418V14.762C98.1737 14.8833 97.7677 14.9767 97.329 15.042C96.8997 15.1073 96.4237 15.14 95.901 15.14ZM102.781 15L99.3367 5.984H100.919L103.621 13.362L106.323 5.984H107.905L104.489 15H102.781Z" fill="white"/>
<rect x="4.54999" y="3" width="3.25" height="9.1" fill="#C4C4C4"/>
<path d="M6.17499 14.7L1.29996 10.8L6.17499 11.775L11.05 10.8L6.17499 14.7Z" fill="#C4C4C4"/>
<rect x="-6.10352e-05" y="16.65" width="13" height="1.3" fill="#C4C4C4"/>
</svg>
