<svg width="161" height="25" viewBox="0 0 161 25" fill="none" xmlns="http://www.w3.org/2000/svg">
<path d="M33.008 18V7.696H38C39.024 7.696 39.7813 7.936 40.272 8.416C40.7627 8.896 41.008 9.57333 41.008 10.448C41.008 11.0027 40.896 11.472 40.672 11.856C40.448 12.2293 40.1493 12.512 39.776 12.704C40.2773 12.8427 40.672 13.0933 40.96 13.456C41.2587 13.808 41.408 14.3307 41.408 15.024C41.408 16.0267 41.136 16.7733 40.592 17.264C40.0587 17.7547 39.2693 18 38.224 18H33.008ZM34.752 12.096H37.76C38.3467 12.096 38.7627 11.9627 39.008 11.696C39.264 11.4187 39.392 11.0507 39.392 10.592C39.392 10.0587 39.264 9.664 39.008 9.408C38.752 9.14133 38.272 9.008 37.568 9.008H34.752V12.096ZM34.752 16.72H37.856C38.4747 16.72 38.928 16.592 39.216 16.336C39.504 16.0693 39.648 15.6107 39.648 14.96C39.648 14.4267 39.504 14.032 39.216 13.776C38.9387 13.5093 38.4267 13.376 37.68 13.376H34.752V16.72ZM45.4698 18.16C44.9898 18.16 44.5418 18.0747 44.1258 17.904C43.7204 17.7333 43.3951 17.4773 43.1497 17.136C42.9044 16.784 42.7818 16.352 42.7818 15.84C42.7818 15.1147 43.0271 14.5333 43.5178 14.096C44.0191 13.648 44.7871 13.424 45.8218 13.424H48.2538V13.088C48.2538 12.7253 48.1951 12.4373 48.0778 12.224C47.9711 12.0107 47.7684 11.856 47.4698 11.76C47.1818 11.664 46.7551 11.616 46.1898 11.616C45.2938 11.616 44.4564 11.7493 43.6778 12.016V10.72C44.0191 10.5813 44.4351 10.4693 44.9258 10.384C45.4164 10.2987 45.9444 10.256 46.5098 10.256C47.6191 10.256 48.4618 10.48 49.0378 10.928C49.6244 11.376 49.9178 12.1067 49.9178 13.12V18H48.4298L48.3178 17.232C48.0084 17.5307 47.6244 17.76 47.1658 17.92C46.7178 18.08 46.1524 18.16 45.4698 18.16ZM45.9338 16.912C46.4564 16.912 46.9098 16.8267 47.2938 16.656C47.6884 16.4747 48.0084 16.2347 48.2538 15.936V14.608H45.8538C45.3418 14.608 44.9684 14.7093 44.7338 14.912C44.5098 15.104 44.3978 15.4027 44.3978 15.808C44.3978 16.2027 44.5311 16.4853 44.7978 16.656C45.0644 16.8267 45.4431 16.912 45.9338 16.912ZM51.8518 18V10.416H53.4518L53.5318 11.216C53.9051 10.9173 54.3158 10.6827 54.7638 10.512C55.2118 10.3413 55.6918 10.256 56.2038 10.256C56.7478 10.256 57.1691 10.3467 57.4678 10.528C57.7771 10.6987 58.0118 10.9387 58.1718 11.248C58.5238 10.96 58.9291 10.7253 59.3878 10.544C59.8464 10.352 60.3958 10.256 61.0358 10.256C61.9104 10.256 62.5558 10.48 62.9718 10.928C63.3878 11.376 63.5958 12.064 63.5958 12.992V18H61.8838V13.168C61.8838 12.5813 61.7611 12.1707 61.5158 11.936C61.2704 11.7013 60.8704 11.584 60.3158 11.584C59.9531 11.584 59.6064 11.648 59.2758 11.776C58.9558 11.904 58.6784 12.096 58.4438 12.352C58.4758 12.4693 58.4971 12.592 58.5078 12.72C58.5184 12.848 58.5238 12.9867 58.5238 13.136V18H56.9078V13.184C56.9078 12.6293 56.8118 12.224 56.6198 11.968C56.4278 11.712 56.0651 11.584 55.5318 11.584C55.1584 11.584 54.8011 11.6747 54.4598 11.856C54.1291 12.0267 53.8304 12.2347 53.5638 12.48V18H51.8518ZM68.0829 18.16C67.5602 18.16 67.0589 18.1227 66.5789 18.048C66.1095 17.9733 65.7202 17.8827 65.4109 17.776V16.304C65.7735 16.4427 66.1735 16.5493 66.6109 16.624C67.0482 16.6987 67.4642 16.736 67.8589 16.736C68.4562 16.736 68.8829 16.6827 69.1389 16.576C69.3949 16.4693 69.5229 16.2613 69.5229 15.952C69.5229 15.728 69.4429 15.552 69.2829 15.424C69.1335 15.296 68.9042 15.1787 68.5949 15.072C68.2962 14.9653 67.9122 14.8373 67.4429 14.688C66.9949 14.5387 66.6055 14.3787 66.2749 14.208C65.9442 14.0267 65.6882 13.7973 65.5069 13.52C65.3255 13.2427 65.2349 12.88 65.2349 12.432C65.2349 11.7387 65.4855 11.2053 65.9869 10.832C66.4882 10.448 67.2935 10.256 68.4029 10.256C68.8402 10.256 69.2562 10.288 69.6509 10.352C70.0455 10.416 70.3815 10.496 70.6589 10.592V12.048C70.3602 11.9307 70.0295 11.84 69.6669 11.776C69.3149 11.712 68.9842 11.68 68.6749 11.68C68.1202 11.68 67.6989 11.728 67.4109 11.824C67.1335 11.92 66.9949 12.112 66.9949 12.4C66.9949 12.6987 67.1389 12.912 67.4269 13.04C67.7255 13.1573 68.2002 13.3227 68.8509 13.536C69.4482 13.7173 69.9229 13.9093 70.2749 14.112C70.6269 14.3147 70.8775 14.56 71.0269 14.848C71.1869 15.1253 71.2669 15.488 71.2669 15.936C71.2669 16.6827 70.9949 17.2427 70.4509 17.616C69.9069 17.9787 69.1175 18.16 68.0829 18.16ZM76.3744 18.16C75.009 18.16 74.0064 17.8187 73.3664 17.136C72.737 16.4533 72.4224 15.4773 72.4224 14.208C72.4224 12.9387 72.7424 11.9627 73.3824 11.28C74.0224 10.5973 75.0197 10.256 76.3744 10.256C77.7397 10.256 78.7424 10.5973 79.3824 11.28C80.0224 11.9627 80.3424 12.9387 80.3424 14.208C80.3424 15.4773 80.0224 16.4533 79.3824 17.136C78.753 17.8187 77.7504 18.16 76.3744 18.16ZM76.3744 16.688C77.1744 16.688 77.7397 16.496 78.0704 16.112C78.4117 15.7173 78.5824 15.0827 78.5824 14.208C78.5824 13.3333 78.4117 12.704 78.0704 12.32C77.7397 11.936 77.1744 11.744 76.3744 11.744C75.585 11.744 75.0197 11.936 74.6784 12.32C74.3477 12.704 74.1824 13.3333 74.1824 14.208C74.1824 15.0827 74.3477 15.7173 74.6784 16.112C75.0197 16.496 75.585 16.688 76.3744 16.688ZM83.9273 18.16C83.3086 18.16 82.8393 18.0107 82.5193 17.712C82.1993 17.4027 82.0393 16.896 82.0393 16.192V7.216H83.7833V16.032C83.7833 16.3307 83.8366 16.5333 83.9433 16.64C84.0499 16.7467 84.2099 16.8 84.4233 16.8C84.6793 16.8 84.9246 16.768 85.1593 16.704V17.968C84.9566 18.0427 84.7593 18.0907 84.5673 18.112C84.3859 18.144 84.1726 18.16 83.9273 18.16ZM86.5236 18V7.216H88.2676V11.152C88.5983 10.8853 88.993 10.672 89.4516 10.512C89.9103 10.3413 90.4276 10.256 91.0036 10.256C91.9636 10.256 92.673 10.4853 93.1316 10.944C93.5903 11.4027 93.8196 12.1173 93.8196 13.088V18H92.0916V13.168C92.0916 12.5813 91.9636 12.1707 91.7076 11.936C91.4623 11.7013 91.0303 11.584 90.4116 11.584C90.0276 11.584 89.6383 11.6693 89.2436 11.84C88.849 12 88.5236 12.2133 88.2676 12.48V18H86.5236ZM98.5096 18.16C97.603 18.16 96.9043 17.9093 96.4136 17.408C95.9336 16.9067 95.6936 16.1707 95.6936 15.2V10.416H97.4376V15.2C97.4376 15.7653 97.5763 16.1813 97.8536 16.448C98.131 16.7147 98.5576 16.848 99.1336 16.848C99.5603 16.848 99.955 16.768 100.318 16.608C100.68 16.448 100.995 16.2347 101.262 15.968V10.416H102.99V18H101.406L101.326 17.216C100.984 17.4827 100.579 17.7067 100.11 17.888C99.6403 18.0693 99.107 18.16 98.5096 18.16ZM108.16 18.16C107.477 18.16 106.874 18.0427 106.352 17.808C105.829 17.5733 105.424 17.184 105.136 16.64C104.848 16.096 104.704 15.3653 104.704 14.448C104.704 13.5413 104.858 12.7787 105.168 12.16C105.477 11.5307 105.904 11.056 106.448 10.736C107.002 10.416 107.626 10.256 108.32 10.256C108.778 10.256 109.184 10.3093 109.536 10.416C109.898 10.5227 110.245 10.688 110.576 10.912V7.216H112.32V18H110.832L110.72 17.248C110.378 17.5573 110.005 17.7867 109.6 17.936C109.194 18.0853 108.714 18.16 108.16 18.16ZM108.624 16.848C109.402 16.848 110.053 16.5813 110.576 16.048V12.256C110.074 11.808 109.445 11.584 108.688 11.584C107.952 11.584 107.397 11.8293 107.024 12.32C106.65 12.8107 106.464 13.5253 106.464 14.464C106.464 15.3707 106.634 15.9947 106.976 16.336C107.328 16.6773 107.877 16.848 108.624 16.848Z" fill="white"/>
<circle cx="12.5" cy="12.5" r="12" stroke="white"/>
<path d="M5.92 17C5.63733 17 5.496 16.8587 5.496 16.576V7.112C5.496 6.82933 5.63733 6.688 5.92 6.688H10.096C10.88 6.688 11.472 6.888 11.872 7.288C12.2773 7.68267 12.48 8.264 12.48 9.032V9.464C12.48 10.3013 12.2107 10.8933 11.672 11.24C12.6053 11.624 13.072 12.456 13.072 13.736V14.24C13.072 15.1467 12.8373 15.8347 12.368 16.304C11.904 16.768 11.216 17 10.304 17H5.92ZM6.336 16.16H10.304C10.9813 16.16 11.472 16.008 11.776 15.704C12.08 15.4 12.232 14.912 12.232 14.24V13.736C12.232 13.064 12.08 12.5787 11.776 12.28C11.4773 11.9813 10.9867 11.832 10.304 11.832H6.336V16.16ZM6.336 10.992H10.216C10.7013 10.992 11.0587 10.8693 11.288 10.624C11.5227 10.3733 11.64 9.98667 11.64 9.464V9.032C11.64 8.49867 11.5173 8.11467 11.272 7.88C11.032 7.64533 10.64 7.528 10.096 7.528H6.336V10.992Z" fill="white"/>
<path d="M16.144 16.984C15.1893 16.984 14.48 16.7733 14.016 16.352C13.5573 15.9253 13.312 15.256 13.28 14.344C13.2747 14.216 13.3093 14.1147 13.384 14.04C13.464 13.96 13.568 13.92 13.696 13.92C13.824 13.92 13.9253 13.9573 14 14.032C14.0747 14.1067 14.1173 14.208 14.128 14.336C14.1493 15.008 14.3093 15.4773 14.608 15.744C14.9067 16.0107 15.4187 16.144 16.144 16.144H18.448C19.2053 16.144 19.7307 15.9973 20.024 15.704C20.3227 15.4053 20.472 14.8827 20.472 14.136C20.472 13.3787 20.3227 12.8533 20.024 12.56C19.7307 12.2613 19.2053 12.112 18.448 12.112H16.256C15.3173 12.112 14.6293 11.8933 14.192 11.456C13.7547 11.0187 13.536 10.3333 13.536 9.4C13.536 8.46667 13.752 7.78133 14.184 7.344C14.6213 6.90667 15.3067 6.688 16.24 6.688H18.48C19.376 6.688 20.04 6.888 20.472 7.288C20.9093 7.688 21.144 8.31733 21.176 9.176C21.1867 9.304 21.152 9.408 21.072 9.488C20.9973 9.56267 20.8933 9.6 20.76 9.6C20.6373 9.6 20.5387 9.56267 20.464 9.488C20.3893 9.41333 20.3467 9.312 20.336 9.184C20.3147 8.57067 20.1653 8.14133 19.888 7.896C19.6107 7.65067 19.1413 7.528 18.48 7.528H16.24C15.5413 7.528 15.056 7.66667 14.784 7.944C14.512 8.216 14.376 8.70133 14.376 9.4C14.376 10.0987 14.512 10.5867 14.784 10.864C15.0613 11.136 15.552 11.272 16.256 11.272H18.448C19.44 11.272 20.1653 11.504 20.624 11.968C21.0827 12.4267 21.312 13.1493 21.312 14.136C21.312 15.1227 21.0827 15.8453 20.624 16.304C20.1653 16.7573 19.44 16.984 18.448 16.984H16.144Z" fill="white"/>
</svg>
