<svg width="67" height="67" viewBox="0 0 67 67" fill="none" xmlns="http://www.w3.org/2000/svg">
<g clip-path="url(#clip0)">
<path d="M61.0174 59.8215C62.5235 59.8215 63.8285 59.3243 64.9378 58.3424L45.9557 39.3594C45.5002 39.6856 45.0588 40.0027 44.6418 40.3042C43.2213 41.3509 42.0683 42.1676 41.183 42.7528C40.2978 43.3393 39.1201 43.9372 37.6499 44.5476C36.1788 45.1588 34.8083 45.4633 33.5368 45.4633H33.4996H33.4624C32.1909 45.4633 30.8203 45.1589 29.3493 44.5476C27.8783 43.9372 26.7005 43.3393 25.8162 42.7528C24.931 42.1676 23.7787 41.351 22.3574 40.3042C21.9614 40.0139 21.5221 39.6953 21.0472 39.3543L2.0614 58.3424C3.17066 59.3243 4.47649 59.8215 5.98242 59.8215H61.0174V59.8215Z" fill="white"/>
<path d="M3.77663 27.4059C2.35621 26.4589 1.09661 25.3743 0 24.1527V53.0336L16.7308 36.3028C13.3837 33.9661 9.07111 31.0038 3.77663 27.4059Z" fill="white"/>
<path d="M63.2612 27.4059C58.1686 30.8528 53.8404 33.8201 50.2759 36.3095L67 53.0344V24.1527C65.9277 25.3498 64.6816 26.4336 63.2612 27.4059Z" fill="white"/>
<path d="M61.0174 7.17848H5.9825C4.06249 7.17848 2.58636 7.82684 1.55228 9.1222C0.517348 10.4182 0.000732422 12.0389 0.000732422 13.9827C0.000732422 15.5527 0.686309 17.2539 2.05685 19.0867C3.4274 20.9187 4.88577 22.3577 6.43123 23.4045C7.27847 24.0031 9.83345 25.7793 14.0962 28.7325C16.3973 30.3271 18.3984 31.717 20.1181 32.9164C21.5839 33.9377 22.848 34.8222 23.8917 35.5562C24.0115 35.6402 24.1999 35.775 24.45 35.9538C24.7194 36.1474 25.0604 36.393 25.481 36.6967C26.2911 37.2825 26.964 37.7561 27.4999 38.1178C28.0352 38.4797 28.6836 38.884 29.4444 39.3328C30.2045 39.7811 30.9215 40.1181 31.5944 40.3423C32.2675 40.5664 32.8905 40.6788 33.4637 40.6788H33.5009H33.5381C34.1112 40.6788 34.7344 40.5664 35.4075 40.3423C36.0803 40.1181 36.7967 39.7818 37.5574 39.3328C38.3175 38.884 38.9651 38.4789 39.502 38.1178C40.038 37.7561 40.7109 37.2827 41.521 36.6967C41.9408 36.393 42.2818 36.1472 42.5512 35.9544C42.8015 35.7749 42.9898 35.641 43.1103 35.5562C43.9234 34.9904 45.1904 34.1096 46.8939 32.9268C49.9936 30.7731 54.5586 27.6032 60.6081 23.4045C62.4275 22.1337 63.9475 20.6001 65.1692 18.806C66.3886 17.0119 67 15.13 67 13.1609C67 11.5156 66.4073 10.1079 65.2243 8.93536C64.04 7.76431 62.6376 7.17848 61.0174 7.17848Z" fill="white"/>
</g>
<defs>
<clipPath id="clip0">
<rect width="67" height="67" fill="white"/>
</clipPath>
</defs>
</svg>
